PathFileType	4	(X/Y/Z)	Run_300 02
DataRate	CameraRate	NumFrames	NumMarkers	Units	OrigDataRate	OrigDataStartFrame	OrigNumFrames
100	100	6	42	mm	100	31	128
Frame#	Time	LASI			RASI			LPSI			RTH1			RTH2			RTH3			LTH1			LTH2			LTH3			RTB1			RTB2			RTB3			LTB1			LTB2			LTB3			RCAL			RTOE			RMT5			LCAL			LTOE			LMT5			LACR			RACR			CLAV			C7			RUA1			RUA2			RUA3			RLEL			RMEL			LUA1			LUA2			LUA3			LLEL			RFAsuperior			RFAradius			RFAulna			LFAsuperior			LFAradius			LFAulna			LMEL			RPSI			
		X1	Y1	Z1	X2	Y2	Z2	X3	Y3	Z3	X4	Y4	Z4	X5	Y5	Z5	X6	Y6	Z6	X7	Y7	Z7	X8	Y8	Z8	X9	Y9	Z9	X10	Y10	Z10	X11	Y11	Z11	X12	Y12	Z12	X13	Y13	Z13	X14	Y14	Z14	X15	Y15	Z15	X16	Y16	Z16	X17	Y17	Z17	X18	Y18	Z18	X19	Y19	Z19	X20	Y20	Z20	X21	Y21	Z21	X22	Y22	Z22	X23	Y23	Z23	X24	Y24	Z24	X25	Y25	Z25	X26	Y26	Z26	X27	Y27	Z27	X28	Y28	Z28	X29	Y29	Z29	X30	Y30	Z30	X31	Y31	Z31	X32	Y32	Z32	X33	Y33	Z33	X34	Y34	Z34	X35	Y35	Z35	X36	Y36	Z36	X37	Y37	Z37	X38	Y38	Z38	X39	Y39	Z39	X40	Y40	Z40	X41	Y41	Z41	X42	Y42	Z42	

29	0.89	1287.835069	1031.839569	-443.909412	1280.376448	1014.215785	-193.391757	1119.962656	1087.867063	-370.631992	1188.14752	837.116858	-153.130844	1179.778572	732.566761	-176.901686	1056.950614	635.422369	-187.018172	1237.46613	896.502773	-515.594881	1355.874125	813.16995	-495.246457	1345.324324	678.425029	-487.69654	965.824718	384.0638	-270.058064	870.787976	318.815612	-231.948504	852.745185	247.510543	-299.038022	1374.809837	407.584332	-413.269131	1316.85851	365.312881	-453.807564	1306.193769	286.712113	-398.029846	705.730264	237.643588	-307.006458	871.56123	70.78018400000001	-319.888744	840.854122	65.420221	-243.52579	1146.263015	197.068417	-377.983309	1379.220604	126.25614	-361.656427	1345.894974	109.635275	-446.960175	1222.146905	1577.202203	-464.099058	1311.924076	1547.52944	-150.703463	1326.123599	1493.820771	-299.044816	1206.975318	1578.8457	-295.111756	1282.391561	1418.280662	-61.586605	1215.427905	1411.569674	-42.583079	1234.700793	1343.010392	-27.772884	1207.229067	1266.544666	-4.059751	1140.944856	1266.219654	-74.26014499999999	1106.127829	1535.008059	-517.566443	1042.651988	1517.093503	-456.122325	1007.170756	1462.622243	-521.903613	948.93341	1413.832012	-526.532695	1281.716585	1288.758833	-50.710244	1374.057343	1337.20502	-183.700219	1394.623231	1269.031801	-165.514989	1014.813088	1359.777985	-543.546501	1184.57173	1299.327751	-517.145711	1146.097994	1240.382298	-524.5759849999999	949.806785	1400.417331	-433.565421	1115.675393	1083.041892	-277.12457	
30	0.9	1290.001956	1035.98734	-443.399822	1282.748715	1016.857008	-194.184725	1122.387608	1092.937428	-369.576147	1187.079267	840.405862	-153.294816	1175.258291	736.570817	-177.489555	1049.514589	642.946231	-187.253797	1238.702014	902.5946290000001	-515.358643	1356.435083	817.572262	-494.524005	1343.280401	682.082204	-484.406537	953.222921	394.233052	-269.73684	857.823797	329.455631	-230.539226	838.642171	257.890271	-297.33165	1386.340187	408.49999	-411.593351	1332.496533	360.50287	-451.685519	1329.50766	281.664244	-395.530837	695.0214130000001	254.371247	-304.764131	847.115368	74.32132799999999	-318.618781	816.2567	70.41776400000001	-242.980968	1179.325768	177.290628	-374.046656	1417.922266	128.801842	-357.56151	1386.096692	107.100079	-442.44696	1222.269255	1581.450106	-464.693439	1311.864762	1554.930517	-153.932843	1326.305252	1499.037733	-300.501396	1206.681805	1583.454981	-296.97215	1284.215334	1428.125032	-62.520008	1217.8626	1420.959512	-43.462101	1237.719002	1352.561497	-27.210182	1210.037264	1275.82763	-2.762604	1142.32375	1275.456081	-71.424442	1106.445552	1539.708204	-517.855041	1043.775514	1522.094307	-455.081777	1007.01489	1468.374248	-521.455361	948.666786	1418.315148	-524.921838	1283.704189	1296.102533	-51.354229	1374.866235	1340.640017	-186.678623	1393.525672	1271.854879	-168.760192	1015.204022	1365.299085	-542.519289	1186.0325	1306.258844	-517.441628	1148.455386	1246.751794	-524.545283	951.02149	1404.968626	-432.026046	1118.669095	1087.685598	-275.912431	
31	0.91	1291.094239	1038.733349	-441.892128	1284.672696	1018.91827	-194.886383	1124.172647	1097.21868	-368.682757	1186.444268	843.459214	-153.209916	1171.938284	740.31065	-177.720782	1044.241033	649.469458	-187.571988	1239.213044	906.8539500000001	-515.204209	1355.87341	820.065485	-493.817623	1339.317471	683.983756	-480.568771	943.115135	402.797663	-269.745418	847.124893	339.203422	-229.422899	825.858464	267.795512	-295.864674	1396.51221	409.066381	-410.073773	1347.503724	355.766553	-449.496004	1352.129572	277.445348	-392.964519	685.851341	271.360999	-302.288372	822.892282	79.219545	-317.611118	791.9475179999999	76.45440499999999	-242.873087	1212.963936	159.555012	-369.551984	1454.958383	132.923964	-354.82037	1424.658802	107.140318	-439.179314	1222.689475	1584.403116	-465.579899	1311.785395	1560.770229	-156.686927	1326.445725	1502.679142	-301.497189	1206.7325	1587.158258	-298.784229	1286.076785	1436.290599	-63.38588	1220.248424	1428.910616	-44.277211	1240.196315	1360.555022	-26.803625	1211.968763	1283.818219	-1.538235	1142.765832	1283.638733	-68.878952	1107.206164	1542.249079	-518.344467	1044.841535	1524.646691	-455.146743	1007.577003	1471.482714	-521.967622	949.453619	1420.073838	-524.819439	1284.981038	1301.698886	-51.840655	1375.628009	1341.53726	-189.015657	1391.957774	1272.252738	-171.054852	1016.963594	1368.285342	-542.505405	1188.782217	1311.253275	-517.951757	1152.194899	1251.137002	-524.886625	952.6546059999999	1406.721366	-431.908877	1120.955269	1091.601011	-274.892987	
32	0.92	1291.376481	1040.526494	-439.758092	1286.09083	1020.557032	-195.349095	1125.222405	1100.520065	-367.900428	1186.23195	846.272828	-152.948388	1170.068416	743.61125	-177.790401	1041.521423	654.48484	-187.691197	1238.975557	908.856484	-515.056347	1354.104316	820.385478	-493.184884	1333.917252	684.076315	-477.007511	935.107124	409.298561	-269.698965	838.023772	348.115299	-228.437801	813.758835	277.195702	-294.398333	1404.908947	409.243743	-408.206363	1360.958475	351.473221	-447.160619	1373.433795	274.075501	-390.223098	677.237426	288.467484	-299.29688	798.474094	85.92459700000001	-317.191984	767.393068	83.692353	-243.2944	1246.174898	144.07613	-365.0949	1489.590948	138.749871	-352.77359	1460.841242	109.758944	-436.616508	1223.408784	1586.180345	-467.106825	1311.916974	1564.843152	-158.669865	1326.678965	1504.899951	-302.200317	1207.214892	1589.879628	-300.593744	1287.798381	1442.52926	-64.119243	1222.329505	1435.308397	-44.974536	1241.976047	1366.826335	-26.488599	1212.956297	1290.25705	-0.459569	1142.077103	1290.679272	-66.7602	1108.289088	1542.735966	-519.270205	1045.688303	1524.738245	-456.452215	1008.893747	1471.72299	-523.445235	951.27729	1419.112574	-526.109792	1285.467628	1305.309902	-52.144968	1376.228034	1339.794009	-190.779076	1389.994234	1270.171252	-172.559077	1019.998438	1368.695286	-543.512128	1192.728332	1314.289266	-518.7616860000001	1157.199529	1253.535778	-525.674086	954.746891	1405.78913	-433.104372	1122.324483	1094.744022	-274.041799	
33	0.93	1291.381081	1041.928546	-438.00801	1286.973841	1021.923907	-195.441404	1125.548827	1102.64003	-367.176475	1186.535216	848.571373	-152.730166	1169.869429	746.065614	-178.082698	1041.634677	657.431485	-187.565794	1238.122205	908.6904479999999	-514.709108	1351.273779	818.468551	-492.482858	1327.884099	682.469369	-474.613676	928.713555	413.783621	-269.472092	829.890491	356.436151	-227.408095	801.804334	286.435694	-292.781911	1411.30283	408.963775	-406.025635	1371.44219	348.160627	-444.877516	1392.681281	271.529506	-387.570352	668.129107	305.542371	-295.538532	774.1997239999999	94.943697	-317.493127	743.040182	92.646946	-244.114349	1277.873046	130.941916	-360.940893	1520.932595	146.596212	-350.796922	1493.89316	114.843284	-434.201869	1224.444892	1586.835535	-469.311613	1312.525167	1567.186139	-159.943571	1327.278497	1505.986427	-302.867994	1208.189234	1591.558628	-302.452013	1289.110289	1446.754144	-64.664379	1223.894157	1440.013754	-45.495857	1242.948535	1371.31574	-26.202572	1212.984903	1294.969469	0.359904	1140.492242	1296.411317	-65.15830800000001	1109.663763	1541.35951	-520.9113630000001	1046.350484	1522.594247	-458.915608	1010.992043	1469.244863	-525.893539	954.098417	1415.644295	-528.5929630000001	1285.129534	1306.800634	-52.292081	1376.562645	1335.431945	-192.0459	1387.608425	1265.590372	-173.522231	1024.16298	1366.665531	-545.510069	1197.73567	1315.335573	-519.903773	1163.29811	1253.936089	-526.949826	957.415063	1402.439839	-435.476975	1122.693953	1096.985783	-273.247429	
34	0.9399999999999999	1291.525647	1043.087637	-437.443127	1287.333242	1023.123562	-195.088681	1125.288829	1103.410606	-366.513355	1187.489866	849.886222	-152.814064	1171.372299	747.194685	-178.954782	1044.514387	657.946765	-187.368342	1236.948235	907.031255	-513.978956	1347.76736	814.639705	-491.37902	1321.691614	679.31836	-473.747506	923.646173	416.674945	-269.177812	822.515633	364.439565	-226.216662	789.98718	295.985789	-291.046412	1415.833134	408.209413	-404.096436	1378.245979	345.994681	-443.017752	1409.221664	269.805154	-385.353355	658.160605	322.572207	-290.940359	751.0798129999999	106.508526	-318.40263	720.227421	103.791597	-245.061387	1306.929569	120.35453	-356.919198	1547.918543	156.434602	-348.650455	1522.902053	121.854559	-431.654799	1225.863938	1586.297948	-471.904622	1313.734718	1568.006541	-160.914112	1328.40518	1506.126624	-303.624239	1209.641418	1592.198001	-304.350034	1289.818504	1448.970794	-65.00404	1224.809017	1442.894078	-45.876195	1243.046708	1374.019755	-25.942053	1212.040169	1297.911093	0.815365	1138.536621	1300.590388	-64.155259	1111.426444	1538.300046	-523.376636	1047.100708	1518.559414	-462.382082	1013.885637	1464.422997	-529.2365579999999	957.89733	1409.988968	-532.091107	1283.980127	1306.157282	-52.320691	1376.534848	1328.54662	-192.845528	1384.718738	1258.578628	-173.944511	1029.32772	1362.43596	-548.412945	1203.658848	1314.364074	-521.3343599999999	1170.323801	1252.334226	-528.7362460000001	960.779253	1396.963206	-438.890178	1122.180635	1098.12572	-272.472913	
